# xmcd
#
# Track frame offsets:
#	150
#	19016
#	39610
#	53039
#	67604
#	83854
#	95475
#	111210
#	126733
#	136919
#	147621
#	157002
#	168468
#	189448
#	204748
#	217999
#	231312
#	245466
#	258538
#	271706
#
# Disc length: 3778 seconds
#
# Revision: 1
# Processed by: cddbd v1.5.2PL0 Copyright (c) Steve Scherf et al.
# Submitted via: audiograbber 1.83.01
#
DISCID=260ec014
DTITLE=Various Artist - 100 Hits The Best Country Album CD3
DYEAR=2018
DGENRE=Country
TTITLE0=Kenny Rogers and Dolly Parton - Islands In The Stream
TTITLE1=Kris Kristofferson - Sunday Mornin' Comin' Down
TTITLE2=Tammy Wynette - D-I-V-O-R-C-E
TTITLE3=John Denver - Take Me Home, Country Roads
TTITLE4=Bobby Bare - The Gambler
TTITLE5=Waylon Jennings and Willie Nelson - Mammas Don't Let Your Babies Grow Up 
TTITLE5=To Be Cowboys
TTITLE6=B.J. Thomas - Whatever Happened To Old Fashioned Love
TTITLE7=Hoyt Axton - Della And The Dealer
TTITLE8=George Hamilton IV - Abilene
TTITLE9=The Statler Brothers - Flowers On The Wall
TTITLE10=Chet Atkins - Yakety Axe
TTITLE11=Don Gibson - Oh Lonesome Me
TTITLE12=The Highwaymen - Desperados Waiting For A Train
TTITLE13=Ricky Van Shelton - Life Turned Her That Way
TTITLE14=Don Williams - One Good Well
TTITLE15=Charlie Rich - Behind Closed Doors
TTITLE16=George Jones - The Grand Tour
TTITLE17=Marty Robbins - Devil Woman
TTITLE18=Jim Reeves - Distant Drums
TTITLE19=Skeeter Davis - The End Of The World
EXTD=
EXTT0=
EXTT1=
EXTT2=
EXTT3=
EXTT4=
EXTT5=
EXTT6=
EXTT7=
EXTT8=
EXTT9=
EXTT10=
EXTT11=
EXTT12=
EXTT13=
EXTT14=
EXTT15=
EXTT16=
EXTT17=
EXTT18=
EXTT19=
PLAYORDER=
